<svg xmlns="http://www.w3.org/2000/svg" xmlns:xlink="http://www.w3.org/1999/xlink" aria-hidden="true" role="img" class="iconify iconify--ph" width="32" height="32" preserveAspectRatio="xMidYMid meet" viewBox="0 0 256 256"><path fill="#888888" d="M128 24a104 104 0 1 0 104 104A104.2 104.2 0 0 0 128 24Zm36 72a12 12 0 1 1-12 12a12 12 0 0 1 12-12Zm-72 0a12 12 0 1 1-12 12a12 12 0 0 1 12-12Zm81.6 86.9a7.6 7.6 0 0 1-4 1.1a7.7 7.7 0 0 1-6.9-4a40.1 40.1 0 0 0-69.4 0a8 8 0 1 1-13.8-8a56 56 0 0 1 97 0a8 8 0 0 1-2.9 10.9Z"></path></svg>