<svg xmlns="http://www.w3.org/2000/svg" xmlns:xlink="http://www.w3.org/1999/xlink" aria-hidden="true" role="img" class="iconify iconify--ph" width="32" height="32" preserveAspectRatio="xMidYMid meet" viewBox="0 0 256 256"><path fill="#888888" d="M227.8 148.1a12 12 0 0 1-8.5 14.7l-21.2 5.7l5.7 21.2a12 12 0 0 1-8.5 14.7a11 11 0 0 1-3.1.4a12 12 0 0 1-11.6-8.9l-7.5-28l-33.1-19.1V187l20.5 20.5a12 12 0 0 1 0 17a12.1 12.1 0 0 1-17 0L128 209l-15.5 15.5a12 12 0 0 1-17-17L116 187v-38.2l-33.1 19.1l-7.5 28a12 12 0 0 1-11.6 8.9a11 11 0 0 1-3.1-.4a12 12 0 0 1-8.5-14.7l5.7-21.2l-21.2-5.7a12 12 0 1 1 6.2-23.2l28 7.5L104 128l-33.1-19.1l-28 7.5a11 11 0 0 1-3.1.4a12 12 0 0 1-3.1-23.6l21.2-5.7l-5.7-21.2a12 12 0 0 1 23.2-6.2l7.5 28l33.1 19.1V69L95.5 48.5a12 12 0 0 1 17-17L128 47l15.5-15.5a12 12 0 0 1 17 17L140 69v38.2l33.1-19.1l7.5-28a12 12 0 1 1 23.2 6.2l-5.7 21.2l21.2 5.7a12 12 0 0 1-3.1 23.6a11 11 0 0 1-3.1-.4l-28-7.5L152 128l33.1 19.1l28-7.5a12 12 0 0 1 14.7 8.5Z"></path></svg>