<svg xmlns="http://www.w3.org/2000/svg" xmlns:xlink="http://www.w3.org/1999/xlink" aria-hidden="true" role="img" class="iconify iconify--ph" width="32" height="32" preserveAspectRatio="xMidYMid meet" viewBox="0 0 256 256"><path fill="#888888" d="M152 147V48a32 32 0 0 0-64 0v99a52 52 0 1 0 64 0Zm-32 61a20 20 0 1 1 20-20a20.1 20.1 0 0 1-20 20Z" opacity=".2"></path><path fill="currentColor" d="M212 52a28 28 0 1 0 28 28a28.1 28.1 0 0 0-28-28Zm0 40a12 12 0 1 1 12-12a12 12 0 0 1-12 12Zm-52 51.3V48a40 40 0 0 0-80 0v95.3A59.4 59.4 0 0 0 60 188a60 60 0 0 0 120 0a59.4 59.4 0 0 0-20-44.7ZM120 232a44 44 0 0 1-44-44a43.5 43.5 0 0 1 16.6-34.4A8.1 8.1 0 0 0 96 147V48a24 24 0 0 1 48 0v99a8.2 8.2 0 0 0 3.3 6.5A44 44 0 0 1 120 232Zm8-70.8V88a8 8 0 0 0-16 0v73.2a28 28 0 1 0 16 0Zm-8 38.8a12 12 0 1 1 12-12a12 12 0 0 1-12 12Z"></path></svg>